<?xml version="1.0" encoding="utf-8"?>
<!-- Generator: Adobe Illustrator 18.0.0, SVG Export Plug-In . SVG Version: 6.00 Build 0)  -->
<!DOCTYPE svg PUBLIC "-//W3C//DTD SVG 1.1//EN" "http://www.w3.org/Graphics/SVG/1.1/DTD/svg11.dtd">
<svg version="1.1" id="Ebene_1" xmlns="http://www.w3.org/2000/svg" xmlns:xlink="http://www.w3.org/1999/xlink" x="0px" y="0px"
	 viewBox="0 0 90 80" enable-background="new 0 0 90 80" xml:space="preserve">
<g>
	<g>
		<path fill="#809580" d="M24.7,74.1h2.1v5.7h1.2v-5.7h2.1v-1h-5.4V74.1z M8.7,76.8h3.4v-0.9H8.7v-1.8h3.7v-1H7.5v6.7h4.9v-1H8.7
			V76.8z M4.2,75.8H1.2v-2.7H0v6.7h1.2v-3h3.1v3h1.2v-6.7H4.2V75.8z M15.7,73.1l-2.6,6.7h1.2l0.7-1.8h2.7l0.7,1.8h1.2l-2.6-6.7H15.7
			z M15.3,77.2l1-2.9h0l1,2.9H15.3z M21.8,73.1h-1.2v6.7h4.6v-1h-3.4V73.1z M35.6,75.8h-3.1v-2.7h-1.2v6.7h1.2v-3h3.1v3h1.2v-6.7
			h-1.2V75.8z M77.7,74.1h2.1v5.7H81v-5.7h2.1v-1h-5.4V74.1z M46.5,76.6h-0.9c0,0.4-0.1,0.7-0.2,0.9l-1-1.2c0.7-0.3,1.2-0.9,1.2-1.7
			c0-1.1-0.8-1.6-1.7-1.6c-0.9,0-1.7,0.7-1.7,1.6c0,0.6,0.3,1,0.7,1.5c-0.8,0.4-1.5,1-1.5,1.9c0,1.3,0.9,2,2.1,2
			c0.8,0,1.4-0.3,1.9-0.9l0.6,0.7h1.3L46,78.3C46.3,77.8,46.5,77.2,46.5,76.6z M43.9,73.8c0.4,0,0.7,0.3,0.7,0.8
			c0,0.5-0.4,0.8-0.8,1.1c-0.2-0.3-0.6-0.7-0.6-1.1C43.2,74.1,43.5,73.8,43.9,73.8z M43.5,79.1c-0.6,0-1.1-0.4-1.1-1.1
			c0-0.8,0.6-1,1-1.3l1.3,1.7C44.6,78.7,44.3,79.1,43.5,79.1z M88.5,73.1l-1.7,3l-1.8-3h-1.3l2.5,4.1v2.7h1.2v-2.7l2.5-4.1H88.5z
			 M75.5,77c0,0.9,0,1.9-1.6,1.9c-1.5,0-1.6-1-1.6-1.9v-3.9h-1.2v4.3c0,1.7,1.1,2.6,2.8,2.6c1.7,0,2.7-0.9,2.7-2.6v-4.3h-1.2V77z
			 M55.6,76.2c0.6-0.3,1-0.8,1-1.4c0-1.1-0.8-1.7-2-1.7h-3.3v6.7h3.1c1.7,0,2.5-0.8,2.5-1.9C56.8,77.1,56.4,76.4,55.6,76.2z
			 M52.5,74.1h1.9c0.6,0,1,0.3,1,0.9c0,0.6-0.4,0.9-1,0.9h-1.9V74.1z M54.5,78.9h-2.1v-2.1h2.1c0.7,0,1.1,0.4,1.1,1
			C55.7,78.5,55.3,78.9,54.5,78.9z M66.5,73.1l-2.6,6.7h1.2l0.7-1.8h2.7l0.6,1.8h1.2l-2.6-6.7H66.5z M66.1,77.2l1-2.9h0l1,2.9H66.1z
			 M59.5,76.8h3.4v-0.9h-3.4v-1.8h3.7v-1h-4.8v6.7h4.9v-1h-3.7V76.8z M57.2,53.1H25.5V0h-7.2v59.4l41.7,0L57.2,53.1z M38.6,32.7
			h15.9L66,59.4h7.5L61.4,30.9c6.7-1.8,10.7-8,10.7-14.7c0-4.8-2.2-9.6-6.1-12.5C62.2,0.8,57.6,0.2,53,0.2H31.5v47.6h7.2V32.7z
			 M38.6,6.3H53c3,0,5.4,0.1,7.9,1.8c2.8,1.8,4,4.6,4,8c0,2.8-0.9,5.5-2.9,7.5c-2.8,2.9-6,3.2-9.9,3.2H38.6V6.3z"/>
	</g>
</g>
</svg>
